<svg xmlns="http://www.w3.org/2000/svg"><style>:root svg:not(:target){display:none}</style><svg fill="none" id="arrow-icon" viewBox="0 0 24 14"><path d="M10.94 13.06a1.5 1.5 0 0 0 2.12 0l9.547-9.545a1.5 1.5 0 1 0-2.122-2.122L12 9.88 3.515 1.393a1.5 1.5 0 1 0-2.122 2.122l9.546 9.546ZM10.5 11v1h3v-1h-3Z" fill="#1A737D"></path></svg><svg fill="none" id="point-icon" viewBox="0 0 22 26"><path fill-rule="evenodd" clip-rule="evenodd" d="M10.58 0C6.079 0 2.419 3.693 2.419 8.249c0 1.543.68 3.457 1.669 5.366 2.178 4.205 5.806 8.44 5.806 8.44a.907.907 0 0 0 1.376 0s3.628-4.235 5.806-8.44c.989-1.91 1.668-3.823 1.668-5.366 0-4.556-3.66-8.249-8.162-8.249Zm0 4.837a3.327 3.327 0 0 0 0 6.651 3.327 3.327 0 0 0 0-6.65Z" fill="#0F6069"></path><path fill-rule="evenodd" clip-rule="evenodd" d="M16.366 19.503c.984.295 1.794.66 2.354 1.088.363.276.629.546.629.874 0 .194-.11.37-.265.545-.257.289-.638.549-1.11.79-1.666.853-4.36 1.386-7.393 1.386-3.033 0-5.727-.533-7.393-1.386-.472-.241-.853-.501-1.11-.79-.154-.176-.264-.351-.264-.545 0-.328.266-.598.629-.874.56-.428 1.37-.793 2.353-1.088a.907.907 0 1 0-.522-1.738c-1.497.451-2.66 1.069-3.36 1.752C.3 20.116 0 20.786 0 21.465c0 .85.48 1.696 1.456 2.402C3.168 25.105 6.608 26 10.581 26c3.974 0 7.413-.895 9.125-2.133.976-.706 1.457-1.553 1.457-2.402 0-.68-.3-1.35-.915-1.948-.699-.683-1.862-1.301-3.36-1.752a.907.907 0 1 0-.522 1.738Z" fill="#0F6069"></path></svg></svg>